<svg id="Layer_1" data-name="Layer 1" xmlns="http://www.w3.org/2000/svg" viewBox="0 0 2156 1546"><defs><style>.cls-1{opacity:0.15;}.cls-2{fill:#ecf87f;}.cls-3{opacity:0.1;}.cls-4{fill:#81b622;}</style></defs><g id="Polygon_1" data-name="Polygon 1" class="cls-1"><path class="cls-2" d="M537.9,913-132.6-80h1341Z" transform="translate(132.6 383)"/><path class="cls-2" d="M537.9,911.21,1206.51-79H-130.72L537.9,911.21m0,1.79L-132.6-80h1341Z" transform="translate(132.6 383)"/></g><g id="Polygon_2" data-name="Polygon 2" class="cls-3"><path class="cls-4" d="M1208.9,610,538.4-383h1341Z" transform="translate(132.6 383)"/><path class="cls-4" d="M1208.9,608.21,1877.51-382H540.28L1208.9,608.21m0,1.79L538.4-383h1341Z" transform="translate(132.6 383)"/></g><g id="Polygon_3" data-name="Polygon 3" class="cls-1"><path class="cls-2" d="M1352.9,170l670.5,993H682.4Z" transform="translate(132.6 383)"/><path class="cls-2" d="M1352.9,171.79,684.28,1162H2021.51L1352.9,171.79m0-1.79,670.5,993H682.4Z" transform="translate(132.6 383)"/></g></svg>